# xmcd
# 
# Track frame offsets:
#     225
#     13105
#     28336
#     52928
#     65197
#     79846
#     98024
# 
# Disc length: 1495
# 
# Revision: 0
# Processed by: cddbd v1.5.2PL0 Copyright (c) Steve Scherf et al.
# Submitted via: fre:ac v1.0.31
# 
DISCID=5805d407
DTITLE=Slim Whitman - Greatest Hits
DYEAR=1990
DGENRE=Country
TTITLE0=The Rose
TTITLE1=Country D.J.
TTITLE2=Shine Your Light
TTITLE3=Amazing Grace
TTITLE4=Bonnie Jean
TTITLE5=High Ridin Heroes
TTITLE6=Indian Love Call
EXTD=Country
EXTT0=
EXTT1=
EXTT2=
EXTT3=
EXTT4=
EXTT5=
EXTT6=
PLAYORDER=
